<svg xmlns="http://www.w3.org/2000/svg" version="1.1" xmlns:xlink="http://www.w3.org/1999/xlink" xmlns:svgjs="http://svgjs.com/svgjs" width="512" height="512" x="0" y="0" viewBox="0 0 512.182 512.182" style="enable-background:new 0 0 512 512" xml:space="preserve" class=""><g><g xmlns="http://www.w3.org/2000/svg"><path d="m275.56 457.182h-5.422c1.924-3.753 3.018-8 3.018-12.5 0-15.164-12.336-27.5-27.5-27.5h-188.191c-15.164 0-27.5 12.336-27.5 27.5 0 4.5 1.093 8.747 3.018 12.5h-5.423c-15.164 0-27.5 12.336-27.5 27.5s12.336 27.5 27.5 27.5h248c15.164 0 27.5-12.336 27.5-27.5s-12.336-27.5-27.5-27.5zm0 40h-248c-6.893 0-12.5-5.607-12.5-12.5s5.607-12.5 12.5-12.5h46.182c9.697 0 9.697-15 0-15h-16.277c-6.893 0-12.5-5.607-12.5-12.5s5.607-12.5 12.5-12.5h188.191c6.893 0 12.5 5.607 12.5 12.5s-5.607 12.5-12.5 12.5h-131.927c-9.697 0-9.697 15 0 15h161.831c6.893 0 12.5 5.607 12.5 12.5s-5.607 12.5-12.5 12.5z" "#000000" data-original="#000000"></path><path d="m502.663 322.499-134.478-134.479c8.355-13.963 5.761-32.284-5.979-43.495l15.788-15.788c22.561 24.837 61.634-10.487 37.299-34.824l-50.886-50.883c-6.857-6.857-17.464 3.75-10.606 10.606l50.884 50.884c9.703 9.703-5.344 24.351-14.848 14.848l-86.263-86.263c-9.703-9.703 5.344-24.351 14.848-14.848l8.083 8.083c6.857 6.857 17.464-3.75 10.606-10.606l-8.082-8.083c-24.139-24.139-59.846 14.537-34.824 37.299l-114.466 114.464c-22.562-24.803-61.661 10.464-37.299 34.824l86.263 86.264c24.109 24.106 59.89-14.531 34.823-37.299l15.788-15.788c11.209 11.748 29.552 14.378 43.506 5.99l134.468 134.468c29.276 29.277 74.652-16.099 45.375-45.374zm-248.505-52.604c-4.094 4.095-10.754 4.094-14.848 0l-86.263-86.264c-9.584-9.582 5.275-24.419 14.848-14.848l86.263 86.264c4.052 4.051 4.05 10.798 0 14.848zm-1.237-37.298-62.575-62.576 114.465-114.465 62.575 62.575zm66.07-15.102c-8.123 8.123-21.191 7.239-29.04-.657l61.677-61.677c7.871 7.894 8.87 20.826.657 29.04zm173.065 139.771c-6.591 6.591-17.57 6.591-24.161 0l-133.731-133.731 24.161-24.161 133.731 133.731c6.591 6.591 6.591 17.57 0 24.161z" "#000000" data-original="#000000"></path><path d="m53.596 357.031 43.497 29.43c7.795 5.273 16.416-7.005 8.406-12.424l-43.497-29.43c-8.032-5.434-16.438 6.989-8.406 12.424z" "#000000" data-original="#000000"></path><path d="m203.871 387.75c1.446 0 2.908-.418 4.196-1.289l43.497-29.43c8.032-5.435-.375-17.858-8.406-12.424l-43.497 29.43c-6.204 4.197-2.744 13.713 4.21 13.713z" "#000000" data-original="#000000"></path><path d="m160.08 347.686v-50.004c0-9.697-15-9.697-15 0v50.004c0 9.698 15 9.698 15 0z" "#000000" data-original="#000000"></path></g></g></svg>